<svg width="1800" height="500" viewBox="0 0 1800 500" fill="none" xmlns="http://www.w3.org/2000/svg">
<g clip-path="url(#clip0_5916_217921)">
<rect width="1800" height="500" fill="#E9EDFE"/>
<rect x="300" width="300" height="500" fill="#FCC0B4"/>
<path fill-rule="evenodd" clip-rule="evenodd" d="M374.886 295.99L439.664 231.213L504.429 295.978H504.522V364.152H436.348V357.451L374.886 295.99Z" fill="#CE614A"/>
<path d="M504.521 295.978L439.543 231H494.935L559.913 295.978H504.521Z" fill="#FB907D"/>
<path fill-rule="evenodd" clip-rule="evenodd" d="M300 364.152H368.174V432.326H300V364.152ZM300 500.5V432.326H368.174V500.5H300Z" fill="#CE614A"/>
<path d="M368.174 364.152L436.348 295.978H374.565L300 364.152H368.174Z" fill="#FB907D"/>
<path fill-rule="evenodd" clip-rule="evenodd" d="M436.285 295.916L368.174 364.027L368.299 364.152H368.174V432.326H436.348L436.348 500.5C473.999 500.5 504.522 469.977 504.522 432.326L504.522 364.152L436.285 295.916ZM368.174 432.326V500.5H436.348V432.326H368.174Z" fill="white"/>
<circle cx="436.348" cy="381.196" r="29.8261" fill="#FB907D"/>
<path fill-rule="evenodd" clip-rule="evenodd" d="M438 500C473.89 499.989 502.98 470.892 502.98 435H502.981V500H438Z" fill="#FA7659"/>
<path fill-rule="evenodd" clip-rule="evenodd" d="M568 435V370C532.102 370 503 399.102 503 435H568Z" fill="#FA7659"/>
<rect width="65" height="65" transform="matrix(-1 0 0 1 568 435)" fill="#FA7659"/>
<path fill-rule="evenodd" clip-rule="evenodd" d="M600 435H568V500H600V435Z" fill="#FA7659"/>
<path fill-rule="evenodd" clip-rule="evenodd" d="M600 370H568V435H600V370Z" fill="#FA7659"/>
<path fill-rule="evenodd" clip-rule="evenodd" d="M600 361.582C590.553 366.938 579.634 369.997 568 370H600V361.582Z" fill="#FA7659"/>
<circle cx="464.5" cy="130.5" r="39.5" fill="white"/>
<rect x="600" width="300" height="500" fill="#4A9DF7"/>
<path fill-rule="evenodd" clip-rule="evenodd" d="M806.854 365.927L806.854 299C769.891 299 739.927 328.964 739.927 365.927L806.854 365.927Z" fill="#8AB8F9"/>
<path fill-rule="evenodd" clip-rule="evenodd" d="M806.854 365.927L806.854 432.854L873.781 432.854V365.927L873.781 299C836.818 299 806.854 328.964 806.854 365.927Z" fill="#F3F6FE"/>
<path fill-rule="evenodd" clip-rule="evenodd" d="M806.854 432.854L806.854 365.927C769.891 365.927 739.927 395.891 739.927 432.854L806.854 432.854Z" fill="#8AB8F9"/>
<path fill-rule="evenodd" clip-rule="evenodd" d="M739.927 432.854L739.927 365.927C702.964 365.927 673 395.891 673 432.854L739.927 432.854Z" fill="#BCD3FC"/>
<path fill-rule="evenodd" clip-rule="evenodd" d="M739.927 432.854L739.927 499.781C776.89 499.781 806.854 469.816 806.854 432.854L739.927 432.854Z" fill="#BCD3FC"/>
<path fill-rule="evenodd" clip-rule="evenodd" d="M806.854 432.854L806.854 499.781C843.816 499.781 873.781 469.816 873.781 432.854L806.854 432.854Z" fill="#BCD3FC"/>
<path fill-rule="evenodd" clip-rule="evenodd" d="M900 304.331C891.948 300.899 883.086 299 873.78 299L873.78 365.927L873.78 432.854C883.086 432.854 891.948 430.954 900 427.523V304.331Z" fill="#BCD3FC"/>
<path fill-rule="evenodd" clip-rule="evenodd" d="M739.927 432.854L673 432.854C673 469.816 702.964 499.781 739.927 499.781L739.927 432.854Z" fill="#8AB8F9"/>
<path fill-rule="evenodd" clip-rule="evenodd" d="M763.707 96.9268H696.781H696.78H629.854C629.854 59.9642 659.818 30 696.78 30C733.743 30 763.707 59.9642 763.707 96.9268Z" fill="#BCD3FC"/>
<path fill-rule="evenodd" clip-rule="evenodd" d="M629.854 96.9268L629.854 163.854C666.816 163.854 696.781 133.889 696.781 96.9268L629.854 96.9268Z" fill="#8AB8F9"/>
<path fill-rule="evenodd" clip-rule="evenodd" d="M629.854 163.854L629.854 230.781C666.816 230.781 696.781 200.816 696.781 163.854L629.854 163.854Z" fill="#8AB8F9"/>
<path fill-rule="evenodd" clip-rule="evenodd" d="M830.634 163.854H763.707L763.707 96.9269C800.67 96.9269 830.634 126.891 830.634 163.854ZM763.707 230.781L763.707 163.854L830.634 163.854C830.634 200.816 800.67 230.781 763.707 230.781Z" fill="#9FC3FC"/>
<path fill-rule="evenodd" clip-rule="evenodd" d="M696.781 163.854L696.781 96.9269L763.707 96.9269V163.854H696.781ZM763.707 163.854V230.781C726.745 230.781 696.781 200.816 696.781 163.854H763.707Z" fill="#F3F6FE"/>
<path fill-rule="evenodd" clip-rule="evenodd" d="M600 96.9268H629.854V30C619.126 30 608.987 32.5241 600 37.0108V96.9268Z" fill="#BCD3FC"/>
<path fill-rule="evenodd" clip-rule="evenodd" d="M600 163.854H629.854L629.854 96.9269L600 96.9269V163.854Z" fill="#F3F6FE"/>
<path fill-rule="evenodd" clip-rule="evenodd" d="M600 219.583C617.997 207.587 629.854 187.105 629.854 163.854L600 163.854V219.583Z" fill="#BCD3FC"/>
<rect x="900" y="-0.269165" width="300" height="500" fill="#D5706F"/>
<path d="M900 326.137L900 -0.362549L1200.59 -0.362517L1200.59 84.2308L989.581 394.763L900 326.137Z" fill="#FCBFB7"/>
<path d="M900.094 275.231L900.094 6.2307L915.79 -0.417052L983.561 -0.417114L1102.97 66.2775L994.318 297.557L900.094 275.231Z" fill="#FFD0C8"/>
<path d="M1200 107.137L1100.03 41.3975L1024.18 119.322L1060.09 271.127L1036.87 328.47L1070.12 407.318L1200 407.318L1200 107.137Z" fill="#D5706F"/>
<path d="M1200 152.637L1130.92 106.177L1095.84 181.961L1126.31 310.771L1118.57 359.82L1065.09 499.731H1200V152.637Z" fill="#A94645" fill-opacity="0.61"/>
<path fill-rule="evenodd" clip-rule="evenodd" d="M1048.86 363.426C1048.24 364.236 1047.63 365.066 1047.04 365.917C1028.64 392.531 1035.29 429.029 1061.9 447.438C1062.75 448.027 1063.61 448.59 1064.48 449.127L1099.52 398.469L1048.86 363.426Z" fill="#A94645"/>
<path fill-rule="evenodd" clip-rule="evenodd" d="M1014.08 167.97C1013.45 168.78 1012.84 169.611 1012.26 170.461C993.846 197.075 1000.5 233.573 1027.11 251.983C1027.96 252.571 1028.82 253.134 1029.69 253.671L1064.73 203.013L1014.08 167.97Z" fill="#D5706F"/>
<path fill-rule="evenodd" clip-rule="evenodd" d="M1101.76 348.16L1071.62 400.962L1071.62 400.962C1088.27 371.8 1078.12 334.666 1048.96 318.021L1101.76 348.16Z" fill="#FBB8AD"/>
<path fill-rule="evenodd" clip-rule="evenodd" d="M988.224 63.6252L929.498 79.361L929.498 79.3609C961.932 70.6703 981.179 37.3325 972.489 4.89872L988.224 63.6252Z" fill="#FDDFDA"/>
<path fill-rule="evenodd" clip-rule="evenodd" d="M900 295.937C912.062 300.847 925.818 301.654 939.141 297.254C940.108 296.934 941.061 296.591 942 296.226L923.309 237.637L900 245.336V295.937Z" fill="#FDDFDA"/>
<path fill-rule="evenodd" clip-rule="evenodd" d="M1200 164.841L1166.07 141.371C1165.45 142.181 1164.84 143.011 1164.25 143.862C1145.84 170.475 1152.49 206.974 1179.11 225.383C1179.96 225.972 1180.82 226.535 1181.69 227.072L1200 200.598V164.841Z" fill="#DA8A89"/>
<path fill-rule="evenodd" clip-rule="evenodd" d="M1007.3 -1C1005.38 19.4071 1014.25 40.2241 1032.31 52.7145C1033.16 53.303 1034.02 53.8659 1034.89 54.4033L1069.93 3.74489L1063.07 -1H1007.3Z" fill="#A94645"/>
<rect x="1500" width="300" height="500" fill="#00C5AD"/>
<path fill-rule="evenodd" clip-rule="evenodd" d="M1661.52 135.259L1609.26 83C1580.4 111.862 1580.4 158.655 1609.26 187.517L1661.52 135.259Z" fill="#C7F6FC"/>
<path fill-rule="evenodd" clip-rule="evenodd" d="M1719.23 193.017L1717.81 194.446L1717.79 194.426C1688.83 221.85 1643.12 221.374 1614.74 192.997L1665.55 142.187C1665.56 142.18 1665.56 142.172 1665.57 142.165L1667 140.738L1667.02 140.758C1695.98 113.334 1741.69 113.81 1770.06 142.187L1719.26 192.997C1719.25 193.003 1719.24 193.01 1719.23 193.017Z" fill="#64ECF8"/>
<path fill-rule="evenodd" clip-rule="evenodd" d="M1677.81 277.286L1677.81 351.19L1677.81 425.095H1603.9L1603.9 351.19C1603.9 310.374 1636.99 277.286 1677.81 277.286Z" fill="#0DE7BF"/>
<path fill-rule="evenodd" clip-rule="evenodd" d="M1603.9 425.095L1677.81 425.095C1677.81 465.912 1644.72 499 1603.9 499L1603.9 425.095Z" fill="#DFFDF7"/>
<path fill-rule="evenodd" clip-rule="evenodd" d="M1530 328.095L1603.9 328.095C1603.9 287.279 1570.82 254.19 1530 254.19L1530 328.095Z" fill="white"/>
<path fill-rule="evenodd" clip-rule="evenodd" d="M1603.9 328.095V402V475.905C1563.09 475.905 1530 442.816 1530 402V328.095H1603.9Z" fill="#9FFFEB"/>
<rect x="1200" width="300" height="500" fill="#E2CF58"/>
<path fill-rule="evenodd" clip-rule="evenodd" d="M1446.53 349.895L1490.08 375.041L1464.93 418.595L1464.93 418.595L1490.08 375.041C1466.05 361.168 1435.33 369.377 1421.42 393.372L1446.53 349.895Z" fill="white"/>
<path fill-rule="evenodd" clip-rule="evenodd" d="M1340.18 380.726L1398.25 414.253C1416.77 382.181 1405.78 341.171 1373.7 322.654L1340.18 380.726Z" fill="#FBE769"/>
<path fill-rule="evenodd" clip-rule="evenodd" d="M1341.3 362.017L1297.75 336.871L1322.89 293.317L1322.89 293.317L1297.75 336.871L1341.3 362.017L1341.3 362.017ZM1341.35 361.938C1355.16 337.916 1346.93 307.243 1322.95 293.353L1366.45 318.463L1341.35 361.938Z" fill="#FBE769"/>
<path fill-rule="evenodd" clip-rule="evenodd" d="M1398.25 414.253L1340.18 380.726C1321.66 412.798 1332.65 453.808 1364.72 472.325L1398.25 414.253Z" fill="#E3FDEB"/>
<path d="M1387.77 432.401L1445.84 465.928L1479.37 407.857C1447.3 389.34 1406.29 400.328 1387.77 432.401Z" fill="#B7A73F"/>
<path d="M1387.77 432.401L1354.24 490.472C1386.32 508.989 1427.33 498 1445.84 465.928L1387.77 432.401Z" fill="#B7A73F"/>
<path fill-rule="evenodd" clip-rule="evenodd" d="M1500 418.551L1486.34 410.664L1461.25 454.122C1469.71 439.535 1484.39 430.786 1500 429.293V418.551Z" fill="#B7A846"/>
<path fill-rule="evenodd" clip-rule="evenodd" d="M1355.22 81.6734L1398.78 106.819L1373.63 150.373L1373.63 150.373L1398.78 106.819C1374.75 92.95 1344.05 101.151 1330.13 125.132L1355.22 81.6734Z" fill="#FBE769"/>
<path fill-rule="evenodd" clip-rule="evenodd" d="M1279.79 343.609L1323.34 368.755L1298.19 412.308L1298.19 412.308L1323.34 368.755C1299.31 354.883 1268.6 363.089 1254.69 387.079L1279.79 343.609Z" fill="#FBE769"/>
<path fill-rule="evenodd" clip-rule="evenodd" d="M1336.36 243.026L1379.92 268.171L1354.77 311.725L1354.77 311.725L1379.92 268.171C1355.89 254.299 1325.17 262.507 1311.26 286.499L1336.36 243.026Z" fill="#B7A846"/>
<path fill-rule="evenodd" clip-rule="evenodd" d="M1395.04 140.347L1438.59 165.493L1413.45 209.047L1413.45 209.046L1438.59 165.493C1414.57 151.627 1383.88 159.821 1369.96 183.787L1395.04 140.347Z" fill="#B7A846"/>
<path fill-rule="evenodd" clip-rule="evenodd" d="M1248.87 110.408L1306.95 143.936C1325.46 111.864 1314.47 70.8536 1282.4 52.3368L1248.87 110.408Z" fill="#FBE769"/>
<path fill-rule="evenodd" clip-rule="evenodd" d="M1250 91.6995L1206.44 66.5538L1231.59 23.0001L1231.59 23L1206.44 66.5538L1250 91.6995L1250 91.6995ZM1250.06 91.5938C1263.85 67.5831 1255.63 36.938 1231.67 23.048L1275.14 48.1458L1250.06 91.5938Z" fill="#FBE769"/>
<path fill-rule="evenodd" clip-rule="evenodd" d="M1306.95 143.936L1248.87 110.408C1230.36 142.481 1241.35 183.491 1273.42 202.008L1306.95 143.936Z" fill="#E3FDEB"/>
<path fill-rule="evenodd" clip-rule="evenodd" d="M1296.47 164.179L1354.54 197.707L1388.07 139.635C1356 121.118 1314.99 132.107 1296.47 164.179ZM1296.47 164.179L1262.94 222.251C1295.01 240.768 1336.02 229.779 1354.54 197.707L1296.47 164.179Z" fill="#B7A73F"/>
<path fill-rule="evenodd" clip-rule="evenodd" d="M1237.8 263.709L1295.87 297.237L1329.4 239.165C1297.32 220.648 1256.31 231.637 1237.8 263.709ZM1204.27 321.781C1236.34 340.297 1277.35 329.309 1295.87 297.237L1237.8 263.709L1204.27 321.781Z" fill="#B7A73F"/>
<path fill-rule="evenodd" clip-rule="evenodd" d="M1200 429.057C1215.15 424.099 1228.6 413.753 1237.19 398.862L1200 377.388V429.057Z" fill="white"/>
<path fill-rule="evenodd" clip-rule="evenodd" d="M1200 377.388L1237.19 398.862L1270.72 340.79C1247.9 327.613 1220.55 329.378 1200 343.05V377.388Z" fill="#FBE769"/>
<path fill-rule="evenodd" clip-rule="evenodd" d="M1200 217.691L1248.27 245.562C1266.79 213.489 1255.8 172.479 1223.73 153.962L1200 195.062V217.691Z" fill="#FBE769"/>
<path fill-rule="evenodd" clip-rule="evenodd" d="M1200 292.128C1204.25 296.531 1209.18 300.421 1214.75 303.633L1248.27 245.562L1200 217.691V292.128Z" fill="#E3FDEB"/>
<rect x="1" width="300" height="500" fill="#00BBC3"/>
<path fill-rule="evenodd" clip-rule="evenodd" d="M6.49767 288.226L54.6132 336.342L54.5067 336.448C81.1015 363.043 124.22 363.043 150.815 336.448L150.767 336.4L154.136 333.031C180.888 309.747 221.489 310.835 246.948 336.294L198.911 288.256L198.794 288.14L198.794 288.14C172.19 261.662 129.158 261.7 102.602 288.256L102.651 288.304L101.759 289.196C75.103 314.779 32.7578 314.456 6.49767 288.226ZM6.46953 288.198L6.46948 288.198L54.6235 240.044L54.6236 240.044L6.46953 288.198Z" fill="#06CAD2"/>
<path fill-rule="evenodd" clip-rule="evenodd" d="M72.0166 393.87L23.8626 345.716C50.4573 319.121 93.5759 319.121 120.171 345.716L72.0166 393.87Z" fill="#E3FDEB"/>
<path fill-rule="evenodd" clip-rule="evenodd" d="M71.8997 393.753L120.054 441.907L168.208 393.753L168.208 393.753L120.054 441.907L71.8997 393.753ZM71.9649 393.688C98.5539 367.169 141.599 367.18 168.175 393.72L120.054 345.599L71.9649 393.688Z" fill="#DFFDF7"/>
<path fill-rule="evenodd" clip-rule="evenodd" d="M125.634 188.282L124.743 189.173C98.0817 214.762 55.725 214.434 29.4661 188.189L77.5971 236.32L77.4906 236.426C104.085 263.021 147.204 263.021 173.799 236.426L173.751 236.378L177.12 233.009C203.872 209.725 244.473 210.813 269.932 236.272L221.894 188.234L221.778 188.118L221.778 188.118C195.174 161.64 152.142 161.678 125.586 188.234L125.634 188.282ZM29.4534 188.176L29.4534 188.176L77.6074 140.022L29.4534 188.176Z" fill="#DFFDF7"/>
<path fill-rule="evenodd" clip-rule="evenodd" d="M301 281.395C300.878 281.515 300.756 281.635 300.635 281.755L300.518 281.872L300.567 281.92L299.679 282.808C273.025 308.393 230.682 308.073 204.42 281.848L252.529 329.957L252.423 330.064C265.828 343.469 283.431 350.117 301 350.009V281.395Z" fill="#06CAD2"/>
<path fill-rule="evenodd" clip-rule="evenodd" d="M1 409.898C25.006 418.457 52.8554 413.127 72.0749 393.908L23.9209 345.754L1 368.675V409.898Z" fill="#BAFAEE"/>
<path fill-rule="evenodd" clip-rule="evenodd" d="M1 418.929L22.6913 440.62L22.5848 440.727C49.1796 467.321 92.2982 467.321 118.893 440.727L118.845 440.679L122.215 437.308C148.959 414.033 189.542 415.113 215.002 440.548L166.989 392.535L166.916 392.462L166.872 392.418C140.268 365.94 97.2366 365.979 70.6807 392.535L70.7288 392.583L69.8374 393.474C50.9908 411.562 24.3018 416.7 1 408.888V418.929Z" fill="#06CAD2"/>
<path fill-rule="evenodd" clip-rule="evenodd" d="M301 118.766C291.494 122.025 282.565 127.446 274.981 135.031L275.029 135.079L274.141 135.968C247.484 161.554 205.137 161.232 178.876 135.001L226.992 183.117L226.885 183.223C246.922 203.26 276.338 208.201 301 198.046V118.766Z" fill="#06CAD2"/>
<path fill-rule="evenodd" clip-rule="evenodd" d="M301 204.449L275.407 230.042C282.878 237.513 291.654 242.885 301 246.159V204.449Z" fill="#BAFAEE"/>
<path fill-rule="evenodd" clip-rule="evenodd" d="M301 196.812C276.452 206.698 247.309 201.703 227.404 181.827L275.523 229.946L301 204.469V196.812ZM227.369 181.792L275.523 133.638L275.523 133.638L227.369 181.792L227.369 181.792Z" fill="#DFFDF7"/>
<path fill-rule="evenodd" clip-rule="evenodd" d="M301 283.939L269.139 252.078L269.022 251.961L269.022 251.962C242.418 225.483 199.387 225.522 172.831 252.078L172.879 252.126L171.991 253.014C145.332 278.604 102.98 278.279 76.719 252.041L124.842 300.164L124.735 300.27C151.33 326.865 194.448 326.865 221.043 300.27L220.995 300.222L224.364 296.853C245.967 278.051 276.602 275.141 301 288.124V283.939ZM76.6978 252.02L124.852 203.866L124.852 203.866L76.6978 252.02L76.6978 252.02Z" fill="#C7F6FC"/>
<path fill-rule="evenodd" clip-rule="evenodd" d="M301 219.249L274.614 245.635L274.614 245.636L301 219.249V219.249ZM301 262.025C291.366 258.784 282.313 253.328 274.636 245.657L301 272.022V262.025Z" fill="#C7F6FC"/>
<path fill-rule="evenodd" clip-rule="evenodd" d="M301.355 326.864C275.752 313.736 243.573 317.892 222.133 339.331L222.181 339.38L221.293 340.268C194.627 365.864 152.259 365.532 126 339.273L174.154 291.119L174.154 291.119L126 339.273L126 339.273L174.144 387.417L174.037 387.523C200.629 414.115 243.74 414.118 270.335 387.534L270.345 387.523L270.297 387.475L273.666 384.106C281.872 376.965 291.38 372.116 301.355 369.56V326.864Z" fill="#DFFDF7"/>
<path fill-rule="evenodd" clip-rule="evenodd" d="M301 368.041C289.125 370.851 277.859 376.888 268.596 386.15L268.645 386.198L267.756 387.086C241.091 412.682 198.722 412.351 172.463 386.092L220.607 434.236L220.501 434.342C242.299 456.14 275.198 460.072 301 446.137V368.041Z" fill="#06CAD2"/>
<path fill-rule="evenodd" clip-rule="evenodd" d="M1 320.811C17.5186 321.456 33.8469 328.082 46.4614 340.687L1 295.226V320.811Z" fill="#06CAD2"/>
<path fill-rule="evenodd" clip-rule="evenodd" d="M1 161.425L29.0757 189.501L28.9692 189.607C55.564 216.202 98.6826 216.202 125.277 189.607L125.229 189.559L128.599 186.189C155.352 162.907 195.952 163.994 221.41 189.453L173.373 141.415L173.294 141.337L173.256 141.299C146.652 114.821 103.621 114.86 77.0651 141.415L77.1132 141.463L76.2214 142.355C55.6276 162.12 25.6702 166.422 1 155.262V161.425Z" fill="#06CAD2"/>
<path fill-rule="evenodd" clip-rule="evenodd" d="M68.5527 353.137L116.707 304.983L116.707 304.983L68.5528 353.137L68.5527 353.137ZM116.683 304.96L68.5527 256.829L20.4679 304.914C47.0604 278.396 90.1099 278.412 116.683 304.96Z" fill="#A6F2FA"/>
<path fill-rule="evenodd" clip-rule="evenodd" d="M1.00024 285.585L20.5156 305.1L68.6697 256.946C50.3525 238.629 24.1969 232.928 1.00024 239.842V285.585Z" fill="#E5FBFD"/>
<path fill-rule="evenodd" clip-rule="evenodd" d="M1 318.662C8.11878 315.384 14.7883 310.812 20.654 304.946L1 285.292V318.662Z" fill="#C7F6FC"/>
<rect width="37.5957" height="37.574" transform="matrix(0.689601 0.724189 -0.710399 0.703799 73.7776 110.228)" fill="#DFFDF7"/>
<ellipse cx="34.2121" cy="34.1923" rx="34.2121" ry="34.1923" transform="matrix(0.689601 0.724189 -0.710399 0.703799 73.7776 110.228)" fill="#DFFDF7"/>
<rect width="37.5957" height="37.574" transform="matrix(0.689601 0.724189 -0.710399 0.703799 220.618 40)" fill="white"/>
<ellipse cx="34.2121" cy="34.1923" rx="34.2121" ry="34.1923" transform="matrix(0.689601 0.724189 -0.710399 0.703799 220.618 40)" fill="white"/>
<rect width="37.5957" height="37.574" transform="matrix(0.689601 0.724189 -0.710399 0.703799 173.8 212.378)" fill="white"/>
<ellipse cx="34.2121" cy="34.1923" rx="34.2121" ry="34.1923" transform="matrix(0.689601 0.724189 -0.710399 0.703799 173.8 212.378)" fill="white"/>
</g>
<defs>
<clipPath id="clip0_5916_217921">
<rect width="1800" height="500" fill="white"/>
</clipPath>
</defs>
</svg>
